<svg width="18" height="19" viewBox="0 0 18 19" fill="none" xmlns="http://www.w3.org/2000/svg">
<rect x="0.484375" y="0.25" width="17.25" height="17.25" rx="8.625" fill="#DEF9FA"/>
<g clip-path="url(#clip0_1_1148)">
<path d="M12.6611 4.84766V6.94699H11.4138C10.9583 6.94699 10.6511 7.04241 10.4922 7.23326C10.3333 7.42411 10.2538 7.71038 10.2538 8.09208V9.59501H12.5816L12.2718 11.9488H10.2538V17.9844H7.82277V11.9488H5.79688V9.59501H7.82277V7.86147C7.82277 6.87542 8.09819 6.1107 8.64902 5.56731C9.19985 5.02393 9.93341 4.75223 10.8497 4.75223C11.6283 4.75223 12.2321 4.78404 12.6611 4.84766Z" fill="#171B26"/>
</g>
<defs>
<clipPath id="clip0_1_1148">
<rect width="8.1375" height="14.25" fill="white" transform="matrix(1 0 0 -1 5.03906 19)"/>
</clipPath>
</defs>
</svg>
