<svg width="18" height="19" viewBox="0 0 18 19" fill="none" xmlns="http://www.w3.org/2000/svg">
<rect x="0.734375" y="0.875" width="17.25" height="17.25" rx="1.5" fill="#DEF9FA"/>
<g clip-path="url(#clip0_1_1145)">
<path d="M6.5558 7.30915V13.9453H4.34598V7.30915H6.5558ZM6.69643 5.26004C6.70089 5.58594 6.58817 5.85826 6.35826 6.07701C6.12835 6.29576 5.82589 6.40513 5.45089 6.40513H5.4375C5.07143 6.40513 4.77679 6.29576 4.55357 6.07701C4.33036 5.85826 4.21875 5.58594 4.21875 5.26004C4.21875 4.92969 4.33371 4.65625 4.56362 4.43973C4.79353 4.22321 5.09375 4.11495 5.46429 4.11495C5.83482 4.11495 6.1317 4.22321 6.35491 4.43973C6.57813 4.65625 6.69196 4.92969 6.69643 5.26004ZM14.5045 10.1417V13.9453H12.3013V10.3962C12.3013 9.92746 12.2109 9.56027 12.0301 9.29464C11.8493 9.02902 11.567 8.89621 11.183 8.89621C10.9018 8.89621 10.6663 8.97321 10.4766 9.12723C10.2868 9.28125 10.1451 9.4721 10.0513 9.69978C10.0022 9.83371 9.97768 10.0145 9.97768 10.2422V13.9453H7.77455C7.78348 12.1641 7.78795 10.7199 7.78795 9.61272C7.78795 8.50558 7.78571 7.84487 7.78125 7.63058L7.77455 7.30915H9.97768V8.27344H9.96429C10.0536 8.13058 10.1451 8.00558 10.2388 7.89844C10.3326 7.79129 10.4587 7.67522 10.6172 7.55022C10.7757 7.42522 10.9699 7.32812 11.1998 7.25893C11.4297 7.18973 11.6853 7.15513 11.9665 7.15513C12.7299 7.15513 13.3438 7.40848 13.808 7.91518C14.2723 8.42188 14.5045 9.16406 14.5045 10.1417Z" fill="#171B26"/>
</g>
<defs>
<clipPath id="clip0_1_1145">
<rect width="10.29" height="12" fill="white" transform="matrix(1 0 0 -1 4.21875 15.125)"/>
</clipPath>
</defs>
</svg>
