<svg width="16" height="19" viewBox="0 0 16 19" fill="none" xmlns="http://www.w3.org/2000/svg">
<g clip-path="url(#clip0_1_1151)">
<path d="M9.77455 11.3225C9.77455 11.3225 9.90011 11.197 10.1512 10.9459C10.4023 10.6948 10.5279 10.2143 10.5279 9.50446C10.5279 8.79464 10.2768 8.18862 9.77455 7.68638C9.27232 7.18415 8.66629 6.93304 7.95647 6.93304C7.24665 6.93304 6.64062 7.18415 6.13839 7.68638C5.63616 8.18862 5.38504 8.79464 5.38504 9.50446C5.38504 10.2143 5.63616 10.8203 6.13839 11.3225C6.64062 11.8248 7.24665 12.0759 7.95647 12.0759C8.66629 12.0759 9.27232 11.8248 9.77455 11.3225ZM10.7589 6.70201C10.7589 6.70201 10.9515 6.89453 11.3365 7.27958C11.7215 7.66462 11.9141 8.40625 11.9141 9.50446C11.9141 10.6027 11.529 11.5368 10.7589 12.3069C9.98884 13.077 9.05469 13.4621 7.95647 13.4621C6.85826 13.4621 5.92411 13.077 5.15402 12.3069C4.38393 11.5368 3.99888 10.6027 3.99888 9.50446C3.99888 8.40625 4.38393 7.4721 5.15402 6.70201C5.92411 5.93192 6.85826 5.54688 7.95647 5.54688C9.05469 5.54688 9.98884 5.93192 10.7589 6.70201ZM12.7277 4.73326C12.7277 4.73326 12.7729 4.77846 12.8633 4.86886C12.9537 4.95926 12.9989 5.1317 12.9989 5.38616C12.9989 5.64062 12.9085 5.85826 12.7277 6.03906C12.5469 6.21987 12.3292 6.31027 12.0748 6.31027C11.8203 6.31027 11.6027 6.21987 11.4219 6.03906C11.2411 5.85826 11.1507 5.64062 11.1507 5.38616C11.1507 5.1317 11.2411 4.91406 11.4219 4.73326C11.6027 4.55246 11.8203 4.46205 12.0748 4.46205C12.3292 4.46205 12.5469 4.55246 12.7277 4.73326ZM8.72489 3.17132C8.72489 3.17132 8.60854 3.17215 8.37584 3.17383C8.14314 3.1755 8.00335 3.17634 7.95647 3.17634C7.9096 3.17634 7.65346 3.17467 7.18806 3.17132C6.72266 3.16797 6.36942 3.16797 6.12835 3.17132C5.88728 3.17467 5.56417 3.18471 5.15904 3.20145C4.75391 3.21819 4.40904 3.25167 4.12444 3.3019C3.83984 3.35212 3.60045 3.41406 3.40625 3.48772C3.07143 3.62165 2.77679 3.81585 2.52232 4.07031C2.26786 4.32478 2.07366 4.61942 1.93973 4.95424C1.86607 5.14844 1.80413 5.38783 1.75391 5.67243C1.70368 5.95703 1.6702 6.3019 1.65346 6.70703C1.63672 7.11217 1.62667 7.43527 1.62333 7.67634C1.61998 7.91741 1.61998 8.27065 1.62333 8.73605C1.62667 9.20145 1.62835 9.45759 1.62835 9.50446C1.62835 9.55134 1.62667 9.80748 1.62333 10.2729C1.61998 10.7383 1.61998 11.0915 1.62333 11.3326C1.62667 11.5737 1.63672 11.8968 1.65346 12.3019C1.6702 12.707 1.70368 13.0519 1.75391 13.3365C1.80413 13.6211 1.86607 13.8605 1.93973 14.0547C2.07366 14.3895 2.26786 14.6842 2.52232 14.9386C2.77679 15.1931 3.07143 15.3873 3.40625 15.5212C3.60045 15.5949 3.83984 15.6568 4.12444 15.707C4.40904 15.7573 4.75391 15.7907 5.15904 15.8075C5.56417 15.8242 5.88728 15.8343 6.12835 15.8376C6.36942 15.841 6.72266 15.841 7.18806 15.8376C7.65346 15.8343 7.9096 15.8326 7.95647 15.8326C8.00335 15.8326 8.25949 15.8343 8.72489 15.8376C9.19029 15.841 9.54353 15.841 9.7846 15.8376C10.0257 15.8343 10.3488 15.8242 10.7539 15.8075C11.159 15.7907 11.5039 15.7573 11.7885 15.707C12.0731 15.6568 12.3125 15.5949 12.5067 15.5212C12.8415 15.3873 13.1362 15.1931 13.3906 14.9386C13.6451 14.6842 13.8393 14.3895 13.9732 14.0547C14.0469 13.8605 14.1088 13.6211 14.159 13.3365C14.2093 13.0519 14.2427 12.707 14.2595 12.3019C14.2762 11.8968 14.2863 11.5737 14.2896 11.3326C14.293 11.0915 14.293 10.7383 14.2896 10.2729C14.2863 9.80748 14.2846 9.55134 14.2846 9.50446C14.2846 9.45759 14.2863 9.20145 14.2896 8.73605C14.293 8.27065 14.293 7.91741 14.2896 7.67634C14.2863 7.43527 14.2762 7.11217 14.2595 6.70703C14.2427 6.3019 14.2093 5.95703 14.159 5.67243C14.1088 5.38783 14.0469 5.14844 13.9732 4.95424C13.8393 4.61942 13.6451 4.32478 13.3906 4.07031C13.1362 3.81585 12.8415 3.62165 12.5067 3.48772C12.3125 3.41406 12.0731 3.35212 11.7885 3.3019C11.5039 3.25167 11.159 3.21819 10.7539 3.20145C10.3488 3.18471 10.0257 3.17467 9.7846 3.17132C9.54353 3.16797 9.19029 3.16797 8.72489 3.17132ZM15.6205 6.32031C15.654 6.9096 15.6708 7.97098 15.6708 9.50446C15.6708 11.0379 15.654 12.0993 15.6205 12.6886C15.5536 14.0815 15.1384 15.1596 14.375 15.923C13.6116 16.6864 12.5335 17.1016 11.1406 17.1685C10.5513 17.202 9.48995 17.2188 7.95647 17.2188C6.42299 17.2188 5.36161 17.202 4.77232 17.1685C3.37946 17.1016 2.30134 16.6864 1.53795 15.923C0.774554 15.1596 0.359375 14.0815 0.292411 12.6886C0.258929 12.0993 0.242188 11.0379 0.242188 9.50446C0.242188 7.97098 0.258929 6.9096 0.292411 6.32031C0.359375 4.92746 0.774554 3.84933 1.53795 3.08594C2.30134 2.32255 3.37946 1.90737 4.77232 1.8404C5.36161 1.80692 6.42299 1.79018 7.95647 1.79018C9.48995 1.79018 10.5513 1.80692 11.1406 1.8404C12.5335 1.90737 13.6116 2.32255 14.375 3.08594C15.1384 3.84933 15.5536 4.92746 15.6205 6.32031Z" fill="#DEF9FA"/>
</g>
<defs>
<clipPath id="clip0_1_1151">
<rect width="15.435" height="18" fill="white" transform="matrix(1 0 0 -1 0.234375 18.5)"/>
</clipPath>
</defs>
</svg>
