<svg width="17" height="19" viewBox="0 0 17 19" fill="none" xmlns="http://www.w3.org/2000/svg">
<g clip-path="url(#clip0_1_1141)">
<path d="M16.2757 4.59933C15.827 5.25558 15.2846 5.81473 14.6484 6.27679C14.6551 6.37054 14.6585 6.51116 14.6585 6.69866C14.6585 7.5692 14.5312 8.43806 14.2768 9.30525C14.0223 10.1724 13.6356 11.0045 13.1166 11.8013C12.5977 12.5982 11.9799 13.303 11.2634 13.9157C10.5469 14.5285 9.68304 15.0173 8.67188 15.3823C7.66071 15.7472 6.57924 15.9297 5.42746 15.9297C3.61272 15.9297 1.95201 15.4442 0.445312 14.4732C0.679688 14.5 0.940848 14.5134 1.22879 14.5134C2.73549 14.5134 4.07812 14.0513 5.2567 13.1272C4.55357 13.1138 3.92411 12.8979 3.3683 12.4794C2.8125 12.0608 2.4308 11.5268 2.22321 10.8772C2.4442 10.9107 2.64844 10.9275 2.83594 10.9275C3.12388 10.9275 3.40848 10.8906 3.68973 10.817C2.93973 10.6629 2.31864 10.2896 1.82645 9.69699C1.33426 9.10435 1.08817 8.41629 1.08817 7.63281V7.59263C1.54353 7.8471 2.03237 7.98438 2.55469 8.00446C2.11272 7.70982 1.76116 7.32478 1.5 6.84933C1.23884 6.37388 1.10826 5.85826 1.10826 5.30246C1.10826 4.71317 1.25558 4.16741 1.55022 3.66518C2.36049 4.66295 3.34654 5.4615 4.50837 6.06083C5.6702 6.66016 6.91406 6.9933 8.23996 7.06027C8.18638 6.8058 8.1596 6.55804 8.1596 6.31696C8.1596 5.41964 8.476 4.65458 9.10882 4.02176C9.74163 3.38895 10.5067 3.07255 11.404 3.07255C12.3415 3.07255 13.1317 3.41406 13.7746 4.0971C14.5045 3.95647 15.1908 3.69531 15.8337 3.31362C15.5859 4.08371 15.1105 4.67969 14.4074 5.10156C15.0301 5.0346 15.6529 4.86719 16.2757 4.59933Z" fill="#DEF9FA"/>
</g>
<defs>
<clipPath id="clip0_1_1141">
<rect width="16.725" height="18" fill="white" transform="matrix(1 0 0 -1 0 18.5)"/>
</clipPath>
</defs>
</svg>
