<svg width="19" height="19" viewBox="0 0 19 19" fill="none" xmlns="http://www.w3.org/2000/svg">
<g clip-path="url(#clip0_1_1143)">
<path d="M7.36583 11.8304L12.2254 9.3192L7.36583 6.7779V11.8304ZM9.22332 3.17188C10.3478 3.17188 11.4339 3.18694 12.4814 3.21708C13.529 3.24721 14.2971 3.27902 14.7857 3.3125L15.5187 3.35268C15.5254 3.35268 15.5823 3.3577 15.6894 3.36775C15.7965 3.37779 15.8735 3.38783 15.9203 3.39788C15.9672 3.40792 16.0458 3.42299 16.1563 3.44308C16.2667 3.46317 16.3621 3.48996 16.4424 3.52344C16.5227 3.55692 16.6164 3.60045 16.7235 3.65402C16.8306 3.70759 16.9344 3.77288 17.0348 3.84989C17.1352 3.9269 17.2323 4.01562 17.326 4.11607C17.3661 4.15625 17.418 4.21819 17.4816 4.3019C17.5452 4.3856 17.6422 4.58147 17.7728 4.88951C17.9033 5.19755 17.992 5.53571 18.0388 5.90402C18.0924 6.33259 18.1342 6.78962 18.1643 7.27511C18.1945 7.7606 18.2129 8.14062 18.2196 8.41518V8.81696V10.183C18.2263 11.154 18.166 12.125 18.0388 13.096C17.992 13.4643 17.9083 13.7974 17.7878 14.0954C17.6673 14.3934 17.5602 14.5993 17.4665 14.7132L17.326 14.8839C17.2323 14.9844 17.1352 15.0731 17.0348 15.1501C16.9344 15.2271 16.8306 15.2907 16.7235 15.341C16.6164 15.3912 16.5227 15.433 16.4424 15.4665C16.3621 15.5 16.2667 15.5268 16.1563 15.5469C16.0458 15.567 15.9655 15.582 15.9153 15.5921C15.8651 15.6021 15.7881 15.6122 15.6844 15.6222C15.5806 15.6323 15.5254 15.6373 15.5187 15.6373C13.8386 15.7645 11.7401 15.8281 9.22332 15.8281C7.83773 15.8147 6.63455 15.793 5.61377 15.7628C4.59299 15.7327 3.92195 15.7076 3.60066 15.6875L3.10868 15.6473L2.74722 15.6071C2.50625 15.5737 2.32385 15.5402 2.20002 15.5067C2.07618 15.4732 1.90549 15.4029 1.68795 15.2958C1.47041 15.1886 1.28131 15.0513 1.12067 14.8839C1.0805 14.8438 1.02863 14.7818 0.965038 14.6981C0.901449 14.6144 0.804391 14.4185 0.673865 14.1105C0.543339 13.8025 0.454648 13.4643 0.407793 13.096C0.354244 12.6674 0.312408 12.2104 0.282287 11.7249C0.252166 11.2394 0.233758 10.8594 0.227065 10.5848V10.183V8.81696C0.220371 7.84598 0.280614 6.875 0.407793 5.90402C0.454648 5.53571 0.538319 5.20257 0.658804 4.90458C0.77929 4.60658 0.886388 4.40067 0.980099 4.28683L1.12067 4.11607C1.21438 4.01562 1.31143 3.9269 1.41184 3.84989C1.51224 3.77288 1.616 3.70759 1.72309 3.65402C1.83019 3.60045 1.9239 3.55692 2.00423 3.52344C2.08455 3.48996 2.17993 3.46317 2.29038 3.44308C2.40082 3.42299 2.47947 3.40792 2.52633 3.39788C2.57319 3.38783 2.65016 3.37779 2.75726 3.36775C2.86436 3.3577 2.92125 3.35268 2.92795 3.35268C4.60805 3.23214 6.70651 3.17188 9.22332 3.17188Z" fill="#DEF9FA"/>
</g>
<defs>
<clipPath id="clip0_1_1143">
<rect width="18.0075" height="18" fill="white" transform="matrix(1 0 0 -1 0.21875 18.5)"/>
</clipPath>
</defs>
</svg>
